# xmcd
#
# Track frame offsets:
#	150
#	23466
#	47265
#	75102
#	107112
#	139087
#	162248
#	186866
#	214766
#	243474
#	265615
#	292721
#
# Disc length: 4261 seconds
#
# Revision: 1
# Processed by: cddbd v1.5.2PL0 Copyright (c) Steve Scherf et al.
# Submitted via: audiograbber 1.83.01
#
DISCID=8d10a30c
DTITLE=Various Artist - Funkymix 148
DYEAR=2011
DGENRE=Hip-Hop
TTITLE0=Jason Derulo - Dont wanna go home 122 bpm
TTITLE1=Nicole Scherzinger - Right there 95 bpm 
TTITLE2=Sean Garrett - In da box 72 bpm
TTITLE3=DJ Khaled - Im on one (clean) 75 bpm
TTITLE4=DJ Khaled - Im on one (dirty) 75 bpm
TTITLE5=Trey Songz - Unusual 80 bpm
TTITLE6=New Boyz - Better with the lights off 112 bpm
TTITLE7=Rihanna - Man Down 78 bpm
TTITLE8=Jennifer Lopez - Im into you 84 bpm
TTITLE9=Flo Rida - Turn around Part 2 128 bpm
TTITLE10=Meek Mill - Tupac back (clean) 70 bpm
TTITLE11=Meek Mill - Tupac back (dirty) 70 bpm
EXTD=
EXTT0=
EXTT1=
EXTT2=
EXTT3=
EXTT4=
EXTT5=
EXTT6=
EXTT7=
EXTT8=
EXTT9=
EXTT10=
EXTT11=
PLAYORDER=
